<svg xmlns="http://www.w3.org/2000/svg" width="200" height="200" version="1.1" viewBox="0 0 200 200"><g id="magnifier"><path id="circle" fill="#637CA5" stroke="#637CA5" stroke-width="7" d="M 87.359375,4.1269531 C 64.924608,3.3040022 42.455816,11.502669 25.755859,28.015625 a 9,9 0 0 0 -0.07227,12.728516 9,9 0 0 0 12.728515,0.07031 c 20.926187,-20.691861 53.4311,-24.735272 78.935556,-9.78125 25.50443,14.954022 37.33223,44.84362 28.92577,72.796879 -8.40646,27.95325 -34.95851,46.73868 -64.646482,45.55273 C 51.938982,148.19687 27.031455,127.36761 20.945312,98.841797 A 9,9 0 0 0 10.265625,91.917969 9,9 0 0 0 3.3417969,102.59766 C 11.149535,139.1926 43.190479,165.86235 80.910156,167.36914 118.62983,168.87593 152.73164,144.85971 163.51172,109.01367 174.2918,73.16763 158.93855,34.55223 126.45117,15.503906 114.26841,8.360785 100.82023,4.6207237 87.359375,4.1269531 Z"/><path id="handle" fill="#637CA5" stroke="#637CA5" stroke-linecap="round" stroke-width="26" d="m 137.10341,140.73762 c 82.4111,79.18213 0,0 0,0 z"/><path id="arrow" fill="#637CA5" stroke="#637CA5" stroke-linecap="round" stroke-width="22" d="m 15.127275,14.1251 1.984848,39.242378 39.760602,-3.034511"/></g></svg>